<svg id="Layer_1" data-name="Layer 1" xmlns="http://www.w3.org/2000/svg" viewBox="0 0 609.74 705.67">
    <title>anchor_white</title><path d="M202.614 238.983a24.77 24.77 0 01-18.707 8.494c-13.693 0-24.793-11.064-24.793-24.712s11.1-24.712 24.793-24.712a24.77 24.77 0 0118.708 8.495h63.419V173.22c-22.162-6.83-38.337-27.245-38.731-51.484l-.008-.907c0-30.281 24.629-54.829 55.01-54.829 30.381 0 55.01 24.548 55.01 54.83 0 24.635-16.301 45.475-38.739 52.39l-.001 33.328h63.42a24.768 24.768 0 0118.298-8.491l.41-.004c13.693 0 24.793 11.064 24.793 24.712s-11.1 24.712-24.793 24.712a24.77 24.77 0 01-18.707-8.494h-63.421l.001 197.592c62.7-6.777 112.654-52.24 122.284-110.036l-8.259 5.76c-5.608 3.914-13.338 2.556-17.265-3.034-3.927-5.59-2.564-13.294 3.045-17.208l33.002-23.033a12.367 12.367 0 017.018-2.236l.251.001c3.85.052 7.62 1.886 9.996 5.269l23.109 32.894c3.927 5.59 2.564 13.295-3.044 17.209-5.609 3.914-13.338 2.555-17.265-3.035l-6.097-8.684c-11.518 69.752-71.884 124.036-146.776 130.969v22.372c0 8.956-7.284 16.217-16.27 16.217s-16.27-7.26-16.27-16.217l-.001-22.372c-74.32-6.88-134.336-60.392-146.503-129.376l-4.979 7.091c-3.927 5.59-11.656 6.949-17.265 3.035-5.608-3.914-6.971-11.619-3.044-17.209l23.109-32.894a12.362 12.362 0 018.002-5.081l.26-.043c3.049-.47 6.277.187 9.003 2.09l33.002 23.033c5.609 3.914 6.972 11.618 3.045 17.208-3.927 5.59-11.657 6.948-17.265 3.034l-9.827-6.856c9.178 58.317 59.367 104.312 122.462 111.132V238.982l-63.42.001zM282.5 91c-16.612 0-30.08 13.431-30.08 30 0 16.569 13.468 30 30.08 30s30.078-13.431 30.078-30c0-16.569-13.466-30-30.078-30z" style="fill:#fff"/></svg>
