<?xml version="1.0" encoding="UTF-8" standalone="no"?>
<!DOCTYPE svg PUBLIC "-//W3C//DTDSVG1.1//EN" "http://www.w3.org/Graphics/SVG/1.1/DTD/svg11.dtd">
<svg width="100%" height="100%" viewBox="0 0 610 706" version="1.1" xmlns="http://www.w3.org/2000/svg" xmlns:xlink="http://www.w3.org/1999/xlink" xml:space="preserve" xmlns:serif="http://www.serif.com/" style="fill-rule:evenodd;clip-rule:evenodd;stroke-linejoin:round;stroke-miterlimit:2;">
    <g>
        <path d="M13.6282947,1.80441324 C13.7889993,1.92996368 13.9295563,2.07935459 14.0450905,2.24740434 L21.3460229,12.8669424 C21.9717933,13.7771539 21.7412082,15.0223134 20.8309967,15.6480838 C20.4975999,15.8772941 20.1025261,16 19.697939,16 L16,16 L16,53 C16,54.1045695 15.1045695,55 14,55 L10,55 C8.8954305,55 8,54.1045695 8,53 L8,16 L4.10049256,16 C2.99592306,16 2.10049256,15.1045695 2.10049256,14 C2.10049256,13.5537682 2.24972387,13.1203534 2.52444382,12.7687119 L10.8209579,2.1491739 C11.5009795,1.27874621 12.757867,1.12439161 13.6282947,1.80441324 Z" style="fill:%COLOR%;fill-rule:nonzero;"></path>
        <path d="M33.8488003,52.6834468 C32.9920771,53.6667392 31.7301012,54.2882562 30.3228375,54.2882562 C27.7419821,54.2882562 25.6497855,52.1978562 25.6497855,49.6192171 C25.6497855,47.040578 27.7419821,44.9501779 30.3228375,44.9501779 C31.730171,44.9501779 32.9922022,45.5717566 33.8489276,46.5551336 L45.802197,46.5551601 L45.8020841,40.2581713 C41.6250379,38.9676794 38.576384,35.1104165 38.5020677,30.5307427 L38.5006787,30.3594306 C38.5006787,24.6380751 43.14274,20 48.8690129,20 C54.5952859,20 59.2373472,24.6380751 59.2373472,30.3594306 C59.2373472,35.0140664 56.1649001,38.95171 51.9357959,40.2582164 L51.9355778,46.5551601 L63.8890982,46.5551336 C64.7301125,45.5897904 65.9617034,44.9730974 67.3379109,44.9508035 L67.4151884,44.9501779 C69.9960438,44.9501779 72.0882404,47.040578 72.0882404,49.6192171 C72.0882404,52.1978562 69.9960438,54.2882562 67.4151884,54.2882562 C66.0079246,54.2882562 64.7459488,53.6667392 63.8892256,52.6834468 L51.9355778,52.683274 L51.9358174,90.0164714 C63.7534546,88.7360398 73.1689189,80.1462931 74.9841526,69.2262589 L73.4274742,70.3146062 C72.3704178,71.0541295 70.9134868,70.7974539 70.1733279,69.7413052 C69.433169,68.6851564 69.6900652,67.2294766 70.7471217,66.4899533 L76.9675244,62.1381207 C77.370875,61.8559341 77.8324482,61.7187966 78.2902045,61.7157784 L78.3375425,61.7159441 C79.0631042,61.7258076 79.7736799,62.0721738 80.2216708,62.7114217 L84.5772437,68.9264828 C85.3174026,69.9826315 85.0605064,71.4383114 84.0034499,72.1778347 C82.9463934,72.917358 81.4894625,72.6606824 80.7493035,71.6045336 L79.6001229,69.9636386 C77.4292802,83.1426088 66.0514328,93.3991503 51.935685,94.7089888 L51.9357034,98.9359431 C51.9357034,100.628175 50.5626993,102 48.8690129,102 C47.1753266,102 45.8023225,100.628175 45.8023225,98.9359431 L45.8021994,94.7089757 C31.7941493,93.4090697 20.482409,83.2984567 18.189164,70.2645946 L17.2506965,71.6045336 C16.5105375,72.6606824 15.0536066,72.917358 13.9965501,72.1778347 C12.9394936,71.4383114 12.6825974,69.9826315 13.4227563,68.9264828 L17.7783292,62.7114217 C18.1484087,62.1833473 18.6976811,61.8551412 19.2865658,61.7513942 L19.3357282,61.7432687 C19.9102898,61.6545455 20.5186286,61.7786302 21.0324756,62.1381207 L27.2528783,66.4899533 C28.3099348,67.2294766 28.566831,68.6851564 27.8266721,69.7413052 C27.0865132,70.7974539 25.6295822,71.0541295 24.5725258,70.3146062 L22.7203955,69.0191093 C24.4502913,80.0375249 33.9099589,88.7279662 45.8022332,90.0164741 L45.802197,52.683274 L33.8488003,52.6834468 Z M49,25 C45.6862915,25 43,27.4624339 43,30.5 C43,33.5375661 45.6862915,36 49,36 C52.3137085,36 55,33.5375661 55,30.5 C55,27.4624339 52.3137085,25 49,25 Z" style="fill:%COLOR%;"></path>
    </g>
</svg>
