<?xml version="1.0" encoding="utf-8"?>
<svg version="1.1" id="Layer_1" xmlns="http://www.w3.org/2000/svg" xmlns:xlink="http://www.w3.org/1999/xlink" x="0px" y="0px" viewBox="0 0 417.1 483.4" style="enable-background:new 0 0 417.1 483.4;" xml:space="preserve">
    <title>icon</title>
    <path d="M200.145 228.001C194.278 234.741 185.637 239 176 239c-17.673 0-32-14.327-32-32 0-17.673 14.327-32 32-32 9.637 0 18.28 4.26 24.146 11h61.853v-43.157c-28.604-8.845-49.48-35.281-49.99-66.669L212 75c0-39.212 31.788-71 71-71s71 31.788 71 71c0 31.901-21.04 58.889-50 67.843V186h61.854c5.76-6.616 14.193-10.843 23.617-10.996L390 175c17.673 0 32 14.327 32 32 0 17.673-14.327 32-32 32-9.637 0-18.278-4.26-24.145-10.999L303.999 228l.002 255.869c80.924-8.776 145.4-67.647 157.83-142.489l-10.66 7.46c-7.239 5.068-17.215 3.308-22.284-3.93-5.068-7.239-3.31-17.215 3.93-22.284l42.595-29.826a15.926 15.926 0 019.058-2.894h.324c4.968.068 9.834 2.442 12.902 6.823l29.826 42.596c5.068 7.239 3.31 17.216-3.93 22.284-7.238 5.069-17.215 3.31-22.283-3.93l-7.87-11.245C478.575 436.758 400.662 507.053 304 516.03L304 545c0 11.598-9.402 21-21 21s-21-9.402-21-21v-28.97c-95.925-8.91-173.385-78.204-189.089-167.534l-6.426 9.184c-5.068 7.238-15.045 8.998-22.284 3.93-7.238-5.07-8.997-15.046-3.929-22.285l29.826-42.596a15.95 15.95 0 0110.328-6.58l.337-.055c3.934-.608 8.1.242 11.619 2.706l42.596 29.826c7.238 5.069 8.997 15.045 3.929 22.284-5.069 7.238-15.045 8.998-22.284 3.93l-12.683-8.88C115.786 415.477 180.564 475.038 262 483.87V228l-61.855.001zM283 36c-21.54 0-39 17.46-39 39s17.46 39 39 39 39-17.46 39-39-17.46-39-39-39z"/>
</svg>
